<svg width="40" height="40" viewBox="0 0 40 40" fill="none" xmlns="http://www.w3.org/2000/svg">
<circle opacity="0.2" cx="20" cy="20" r="20" fill="#C4C4C4"/>
<path fill-rule="evenodd" clip-rule="evenodd" d="M28.6043 14.9024C28.6344 14.9531 28.6349 15.016 28.6058 15.0672C28.5767 15.1185 28.5222 15.1501 28.4633 15.1501H20.4377C20.433 15.1501 20.4283 15.1499 20.4236 15.1494C20.2806 15.1372 20.1382 15.1309 20.0004 15.1309C17.7791 15.1309 15.84 16.6331 15.2849 18.784C15.2682 18.8485 15.2143 18.8965 15.1483 18.9055C15.1409 18.9065 15.1334 18.907 15.1261 18.907C15.0681 18.907 15.0137 18.8762 14.9842 18.825L12.1691 13.9489C12.1353 13.8905 12.1408 13.8174 12.183 13.7647C14.0937 11.3722 16.943 10 20.0004 10C21.767 10 23.5034 10.4671 25.0218 11.3507C26.495 12.208 27.7338 13.4362 28.6043 14.9024ZM20.0002 23.738C17.9394 23.738 16.2629 22.0615 16.2629 20.0006C16.2629 17.9398 17.9394 16.2631 20.0002 16.2631C22.0608 16.2631 23.7372 17.9398 23.7372 20.0006C23.7372 22.0614 22.0608 23.738 20.0002 23.738ZM21.4777 24.7502C21.4369 24.6976 21.3686 24.675 21.3042 24.6928C20.8808 24.8107 20.442 24.8705 20 24.8705C18.1219 24.8705 16.3909 23.7689 15.5901 22.0641L15.5859 22.0558L15.5837 22.0518L11.5679 15.096C11.5387 15.0452 11.4845 15.014 11.426 15.014H11.4251C11.3662 15.0143 11.312 15.0461 11.2831 15.0974C10.4437 16.587 10 18.2826 10 20.0007C10 22.4111 10.8695 24.7393 12.4483 26.5565C14.0115 28.3557 16.1635 29.5397 18.508 29.8906C18.5162 29.8918 18.5243 29.8923 18.5324 29.8923C18.5903 29.8923 18.6447 29.8615 18.6743 29.8104L21.4901 24.9328C21.5234 24.875 21.5185 24.8029 21.4777 24.7502ZM23.5213 16.244H29.159C29.2264 16.244 29.2869 16.2853 29.3116 16.3481C29.7683 17.5116 29.9999 18.7405 29.9999 20.0007C29.9999 22.652 28.9729 25.15 27.1081 27.0344C25.2447 28.9172 22.7606 29.9705 20.1134 30H20.1116C20.0534 30 19.9995 29.9692 19.9701 29.9189C19.9404 29.868 19.9402 29.8051 19.9696 29.7541L23.9923 22.7862C23.9946 22.7822 23.997 22.7783 23.9996 22.7745C24.5686 21.9565 24.8693 20.9974 24.8693 20.0007C24.8693 18.6841 24.3499 17.4498 23.4066 16.525C23.359 16.4785 23.3444 16.4077 23.3696 16.346C23.3947 16.2844 23.4547 16.244 23.5213 16.244Z" fill="#2C2C2C"/>
</svg>
