<svg width="40" height="40" viewBox="0 0 40 40" fill="none" xmlns="http://www.w3.org/2000/svg">
<circle opacity="0.2" cx="20" cy="20" r="20" fill="#C4C4C4"/>
<path d="M22.4872 29V25.6871C22.518 25.2789 22.4651 24.8685 22.3321 24.4833C22.1991 24.0981 21.9891 23.7468 21.7159 23.4528C24.2923 23.1532 27 22.1345 27 17.4604C26.9998 16.2652 26.5591 15.1159 25.7692 14.2502C26.1433 13.2046 26.1168 12.0488 25.6954 11.0229C25.6954 11.0229 24.7272 10.7233 22.4872 12.2899C20.6066 11.7581 18.6242 11.7581 16.7436 12.2899C14.5036 10.7233 13.5354 11.0229 13.5354 11.0229C13.1139 12.0488 13.0875 13.2046 13.4615 14.2502C12.6657 15.1223 12.2246 16.2821 12.2308 17.4861C12.2308 22.1259 14.9385 23.1446 17.5149 23.4785C17.2449 23.7695 17.0367 24.1166 16.9038 24.4971C16.771 24.8776 16.7164 25.2831 16.7436 25.6871V29" fill="#2C2C2C"/>
<path d="M16.7436 26.4318C12.641 27.7159 12.641 24.2917 11 23.8637M22.4872 29V25.6871C22.518 25.2789 22.4651 24.8685 22.3321 24.4833C22.1991 24.0981 21.9891 23.7468 21.7159 23.4528C24.2923 23.1532 27 22.1345 27 17.4604C26.9998 16.2652 26.5591 15.1159 25.7692 14.2502C26.1433 13.2046 26.1168 12.0488 25.6954 11.0229C25.6954 11.0229 24.7272 10.7233 22.4872 12.2899C20.6066 11.7581 18.6242 11.7581 16.7436 12.2899C14.5036 10.7233 13.5354 11.0229 13.5354 11.0229C13.1139 12.0488 13.0875 13.2046 13.4615 14.2502C12.6657 15.1223 12.2246 16.2821 12.2308 17.4861C12.2308 22.1259 14.9385 23.1446 17.5149 23.4785C17.2449 23.7695 17.0367 24.1166 16.9038 24.4971C16.771 24.8776 16.7164 25.2831 16.7436 25.6871V29" stroke="#2C2C2C" stroke-width="2" stroke-linecap="round" stroke-linejoin="round"/>
</svg>

