<svg width="40" height="40" viewBox="0 0 40 40" fill="none" xmlns="http://www.w3.org/2000/svg">
<circle opacity="0.2" cx="20" cy="20" r="20" fill="#C4C4C4"/>
<path fill-rule="evenodd" clip-rule="evenodd" d="M30 10H10V30H30V10ZM15.2411 14.0302C14.7889 13.9968 14.4208 14.3676 14.4208 14.821V18.5466C14.4208 19 14.7902 19.3618 15.2392 19.4248C15.7386 19.4948 16.2281 19.6288 16.6959 19.8244C17.4173 20.126 18.0726 20.568 18.6247 21.1252C19.1768 21.6824 19.6147 22.344 19.9135 23.072C20.1082 23.5465 20.2413 24.0432 20.3104 24.5498C20.3717 24.9991 20.7336 25.3684 21.1871 25.3684H24.8629C25.3164 25.3684 25.687 25.0003 25.6546 24.548C25.5677 23.3359 25.2887 22.1439 24.8266 21.0179C24.2606 19.6386 23.431 18.3854 22.3851 17.3297C21.3392 16.274 20.0976 15.4366 18.731 14.8653C17.6178 14.3999 16.4394 14.1185 15.2411 14.0302Z" fill="#2C2C2C"/>
</svg>
