<svg width="26" height="26" viewBox="0 0 26 26" fill="none" xmlns="http://www.w3.org/2000/svg">
<path fill-rule="evenodd" clip-rule="evenodd" d="M24.1851 6.37312C24.2243 6.43902 24.2249 6.52078 24.1871 6.58736C24.1492 6.65403 24.0785 6.69512 24.0019 6.69512H13.5685C13.5625 6.69512 13.5563 6.69487 13.5503 6.69427C13.3643 6.67841 13.1792 6.67023 13 6.67023C10.1123 6.67023 7.59151 8.6231 6.8699 11.4193C6.84825 11.5031 6.77809 11.5655 6.69233 11.5772C6.6827 11.5785 6.67298 11.5791 6.66344 11.5791C6.58808 11.5791 6.51732 11.5391 6.47896 11.4726L2.81936 5.13364C2.77546 5.05768 2.78262 4.96262 2.83743 4.89408C5.32132 1.78382 9.02543 0 13 0C15.2966 0 17.554 0.607167 19.5279 1.75594C21.443 2.87045 23.0535 4.46705 24.1851 6.37312ZM13.0001 17.8595C10.3211 17.8595 8.1416 15.68 8.1416 13.0009C8.1416 10.3217 10.3211 8.14209 13.0001 8.14209C15.679 8.14209 17.8583 10.3217 17.8583 13.0009C17.8583 15.6799 15.679 17.8595 13.0001 17.8595ZM14.921 19.1752C14.8681 19.1068 14.7793 19.0774 14.6955 19.1005C14.145 19.2538 13.5746 19.3315 13 19.3315C10.5585 19.3315 8.30824 17.8994 7.26713 15.6832C7.26457 15.6777 7.26176 15.6725 7.25877 15.6672L2.03831 6.62463C2.0003 6.55856 1.92988 6.51807 1.85376 6.51807H1.85265C1.7761 6.51849 1.7056 6.55984 1.66809 6.62651C0.576859 8.56301 0 10.7672 0 13.0008C0 16.1343 1.13036 19.161 3.18283 21.5234C5.21492 23.8623 8.01252 25.4015 11.0605 25.8576C11.0711 25.8593 11.0816 25.8599 11.0921 25.8599C11.1674 25.8599 11.2381 25.8199 11.2766 25.7534L14.9371 19.4125C14.9804 19.3375 14.974 19.2437 14.921 19.1752ZM17.5779 8.11719H24.9069C24.9945 8.11719 25.0732 8.17081 25.1052 8.25248C25.699 9.76503 26.0001 11.3626 26.0001 13.0009C26.0001 16.4476 24.665 19.695 22.2407 22.1447C19.8184 24.5924 16.589 25.9616 13.1476 26H13.1452C13.0696 26 12.9995 25.9599 12.9613 25.8945C12.9226 25.8284 12.9224 25.7466 12.9607 25.6803L18.1902 16.622C18.1921 16.6186 18.1942 16.6153 18.1963 16.612C18.1974 16.6103 18.1985 16.6086 18.1997 16.6069C18.9394 15.5434 19.3303 14.2965 19.3303 13.0009C19.3303 11.2893 18.655 9.68472 17.4287 8.48249C17.3669 8.42196 17.3479 8.32989 17.3807 8.24975C17.4133 8.16962 17.4913 8.11719 17.5779 8.11719Z" fill="white"/>
</svg>
