<?xml version="1.0" standalone="no"?>
<!DOCTYPE svg PUBLIC "-//W3C//DTD SVG 20010904//EN"
 "http://www.w3.org/TR/2001/REC-SVG-20010904/DTD/svg10.dtd">
<svg version="1.0" xmlns="http://www.w3.org/2000/svg"
 width="700.000000pt" height="700.000000pt" viewBox="0 0 700.000000 700.000000"
 preserveAspectRatio="xMidYMid meet">
<metadata>
Created by potrace 1.11, written by Peter Selinger 2001-2013
</metadata>
<g transform="translate(0.000000,700.000000) scale(0.100000,-0.100000)"
fill="#000000" stroke="none">
<path d="M1330 6989 c-182 -20 -357 -75 -528 -164 -140 -73 -246 -152 -361
-266 -245 -246 -393 -554 -430 -901 -15 -135 -15 -4181 0 -4316 21 -198 71
-362 164 -540 73 -140 152 -246 266 -361 246 -245 554 -393 901 -430 135 -15
4181 -15 4316 0 198 21 362 71 540 164 140 73 246 152 361 266 245 246 393
554 430 901 15 135 15 4181 0 4316 -21 198 -71 362 -164 540 -73 140 -152 246
-266 361 -246 245 -554 393 -901 430 -118 13 -4213 13 -4328 0z m4046 -1633
c3 -13 4 -475 1 -1027 -4 -957 -5 -1009 -24 -1119 -74 -414 -247 -752 -529
-1034 -358 -358 -813 -546 -1324 -546 -511 0 -966 188 -1324 546 -358 358
-546 813 -546 1324 0 511 188 966 546 1324 239 239 509 394 844 486 236 64
275 66 1417 68 l933 2 6 -24z"/>
<path d="M3250 5105 c-526 -90 -954 -400 -1194 -865 -119 -230 -176 -468 -176
-740 0 -160 13 -265 49 -407 145 -568 596 -1019 1164 -1164 142 -36 247 -49
407 -49 160 0 265 13 407 49 568 145 1019 596 1164 1164 48 190 49 198 49
1140 l0 887 -897 -1 c-679 -1 -916 -5 -973 -14z m378 -1157 l2 -318 318 -2
317 -3 0 -125 0 -125 -317 -3 -318 -2 -2 -318 -3 -317 -125 0 -125 0 -3 317
-2 318 -318 2 -317 3 0 125 0 125 318 3 317 2 0 313 c0 173 3 317 7 321 4 3
61 5 127 4 l121 -3 3 -317z"/>
</g>
</svg>
