<svg width="44" height="66" viewBox="0 0 44 66" fill="none" xmlns="http://www.w3.org/2000/svg">
    <path d="M0 11C0 4.92487 4.92487 0 11 0H22V22H11C4.92487 22 0 17.0751 0 11V11Z" fill="#F24E1E"/>
    <path d="M22 0H33C39.0751 0 44 4.92487 44 11V11C44 17.0751 39.0751 22 33 22H22V0Z" fill="#FF7262"/>
    <path d="M0 33C0 26.9249 4.92487 22 11 22H22V44H11C4.92487 44 0 39.0751 0 33V33Z" fill="#A259FF"/>
    <rect x="22" y="22" width="22" height="22" rx="11" fill="#1ABCFE"/>
    <path d="M0 55C0 48.9249 4.92487 44 11 44H22V55C22 61.0751 17.0751 66 11 66V66C4.92487 66 0 61.0751 0 55V55Z" fill="#0ACF83"/>
</svg>
